<svg width="450" height="93" viewBox="0 0 450 93" fill="none" xmlns="http://www.w3.org/2000/svg">
<path d="M17.784 69.968C21.384 69.968 24.168 68.744 26.136 66.296C28.104 63.848 29.088 60.872 29.088 57.368C29.088 53.816 28.224 50.96 26.496 48.8C24.816 46.64 22.488 45.56 19.512 45.56C18.36 45.56 16.992 45.896 15.408 46.568C13.824 47.24 12.408 48.128 11.16 49.232V68.672C13.416 69.536 15.624 69.968 17.784 69.968ZM11.16 90.56H5.184V41.168H9.072L10.728 44.912C14.232 41.84 17.952 40.304 21.888 40.304C25.824 40.304 29.04 41.84 31.536 44.912C34.032 47.984 35.28 51.992 35.28 56.936C35.28 61.832 33.816 66.056 30.888 69.608C28.008 73.112 23.88 74.864 18.504 74.864C16.104 74.864 13.656 74.528 11.16 73.856V90.56ZM56.9683 44.984C55.1443 44.984 53.5603 45.392 52.2163 46.208C50.9203 47.024 49.9603 48.08 49.3363 49.376C48.1843 51.824 47.6083 54.44 47.6083 57.224C47.6083 65.864 50.6083 70.184 56.6083 70.184C58.4323 70.184 59.9923 69.776 61.2883 68.96C62.5843 68.144 63.5683 67.088 64.2403 65.792C65.3923 63.392 65.9683 60.776 65.9683 57.944C65.9683 49.304 62.9683 44.984 56.9683 44.984ZM56.9683 40.304C62.2963 40.304 66.1843 41.96 68.6323 45.272C71.0803 48.584 72.3043 52.904 72.3043 58.232C72.3043 62.072 71.2963 65.624 69.2803 68.888C68.1763 70.664 66.5203 72.104 64.3123 73.208C62.1043 74.312 59.4643 74.864 56.3923 74.864C51.1123 74.864 47.2723 73.28 44.8723 70.112C42.4723 66.944 41.2723 62.696 41.2723 57.368C41.2723 54.248 41.7523 51.608 42.7123 49.448C43.7203 47.288 44.7763 45.632 45.8803 44.48C46.9843 43.28 48.4963 42.296 50.4163 41.528C52.3363 40.712 54.5203 40.304 56.9683 40.304ZM86.8264 33.464C86.0584 34.232 85.1224 34.616 84.0184 34.616C82.9144 34.616 81.9784 34.232 81.2104 33.464C80.4424 32.648 80.0584 31.688 80.0584 30.584C80.0584 29.48 80.4424 28.544 81.2104 27.776C82.0264 26.96 82.9624 26.552 84.0184 26.552C85.0744 26.552 85.9864 26.96 86.7544 27.776C87.5704 28.544 87.9784 29.48 87.9784 30.584C87.9784 31.688 87.5944 32.648 86.8264 33.464ZM80.9944 41.168H87.1144V74H80.9944V41.168ZM126.291 49.16V74H120.171V49.448C120.171 48.2 119.667 47.24 118.659 46.568C117.699 45.896 116.403 45.56 114.771 45.56C111.363 45.56 107.835 46.784 104.187 49.232V74H98.0668V41.168H101.955L103.755 44.912C107.451 41.84 111.459 40.304 115.779 40.304C118.995 40.304 121.539 41.12 123.411 42.752C125.331 44.384 126.291 46.52 126.291 49.16ZM143.731 45.704V65.432C143.731 68.312 145.099 69.752 147.835 69.752C149.419 69.752 151.315 69.296 153.523 68.384L154.315 73.208C151.963 74.312 149.491 74.864 146.899 74.864C144.307 74.864 142.147 74.096 140.419 72.56C138.691 70.976 137.827 68.576 137.827 65.36V45.704H133.291V41.168H137.827V34.688L142.291 30.584H143.731V41.168H153.019V45.704H143.731ZM160.498 22.304H166.402V74H160.498V22.304ZM189.641 69.824C193.097 69.824 196.553 68.792 200.009 66.728L202.097 71.048C198.065 73.592 193.745 74.864 189.137 74.864C184.577 74.864 180.953 73.424 178.265 70.544C175.577 67.616 174.233 63.416 174.233 57.944C174.233 52.472 175.625 48.176 178.409 45.056C181.193 41.888 184.889 40.304 189.497 40.304C193.673 40.304 196.961 41.6 199.361 44.192C200.369 45.248 201.209 46.784 201.881 48.8C202.601 50.816 202.961 53.192 202.961 55.928L200.729 58.448H180.353C180.497 66.032 183.593 69.824 189.641 69.824ZM196.913 53.912C196.913 51.224 196.217 49.064 194.825 47.432C193.433 45.8 191.585 44.984 189.281 44.984C187.025 44.984 185.105 45.8 183.521 47.432C181.937 49.016 180.977 51.176 180.641 53.912H196.913ZM227.345 46.928C224.897 45.872 222.593 45.344 220.433 45.344C216.257 45.344 214.169 46.616 214.169 49.16C214.169 51.368 216.953 53.504 222.521 55.568C224.585 56.336 226.481 57.536 228.209 59.168C229.985 60.8 230.873 62.768 230.873 65.072C230.873 68.384 229.793 70.856 227.633 72.488C225.473 74.072 222.473 74.864 218.633 74.864C214.793 74.864 211.049 73.808 207.401 71.696L209.201 67.232C212.225 68.96 215.657 69.824 219.497 69.824C221.129 69.824 222.449 69.488 223.457 68.816C224.465 68.096 224.969 67.136 224.969 65.936C224.969 64.736 224.393 63.704 223.241 62.84C222.089 61.976 220.697 61.208 219.065 60.536C217.433 59.864 215.801 59.144 214.169 58.376C212.537 57.56 211.145 56.432 209.993 54.992C208.841 53.552 208.265 51.848 208.265 49.88C208.265 46.808 209.297 44.456 211.361 42.824C213.473 41.144 216.137 40.304 219.353 40.304C222.569 40.304 225.833 41.024 229.145 42.464L227.345 46.928ZM254.977 46.928C252.529 45.872 250.225 45.344 248.065 45.344C243.889 45.344 241.801 46.616 241.801 49.16C241.801 51.368 244.585 53.504 250.153 55.568C252.217 56.336 254.113 57.536 255.841 59.168C257.617 60.8 258.505 62.768 258.505 65.072C258.505 68.384 257.425 70.856 255.265 72.488C253.105 74.072 250.105 74.864 246.265 74.864C242.425 74.864 238.681 73.808 235.033 71.696L236.833 67.232C239.857 68.96 243.289 69.824 247.129 69.824C248.761 69.824 250.081 69.488 251.089 68.816C252.097 68.096 252.601 67.136 252.601 65.936C252.601 64.736 252.025 63.704 250.873 62.84C249.721 61.976 248.329 61.208 246.697 60.536C245.065 59.864 243.433 59.144 241.801 58.376C240.169 57.56 238.777 56.432 237.625 54.992C236.473 53.552 235.897 51.848 235.897 49.88C235.897 46.808 236.929 44.456 238.993 42.824C241.105 41.144 243.769 40.304 246.985 40.304C250.201 40.304 253.465 41.024 256.777 42.464L254.977 46.928ZM269.146 73.568C268.426 74.288 267.538 74.648 266.482 74.648C265.426 74.648 264.538 74.288 263.818 73.568C263.098 72.8 262.738 71.864 262.738 70.76C262.738 69.656 263.098 68.744 263.818 68.024C264.538 67.304 265.426 66.944 266.482 66.944C267.538 66.944 268.426 67.304 269.146 68.024C269.914 68.744 270.298 69.656 270.298 70.76C270.298 71.864 269.914 72.8 269.146 73.568ZM279.301 41.168V32.456C279.301 28.904 280.141 26.192 281.821 24.32C283.501 22.4 285.685 21.44 288.373 21.44C291.109 21.44 294.013 22.16 297.085 23.6L294.997 27.92C292.885 27.056 291.061 26.624 289.525 26.624C286.645 26.624 285.205 28.544 285.205 32.384V41.168H294.133V45.704H285.205V74H279.301V45.704H274.405V41.168H279.301ZM312.407 69.824C315.863 69.824 319.319 68.792 322.775 66.728L324.863 71.048C320.831 73.592 316.511 74.864 311.903 74.864C307.343 74.864 303.719 73.424 301.031 70.544C298.343 67.616 296.999 63.416 296.999 57.944C296.999 52.472 298.391 48.176 301.175 45.056C303.959 41.888 307.655 40.304 312.263 40.304C316.439 40.304 319.727 41.6 322.127 44.192C323.135 45.248 323.975 46.784 324.647 48.8C325.367 50.816 325.727 53.192 325.727 55.928L323.495 58.448H303.119C303.263 66.032 306.359 69.824 312.407 69.824ZM319.679 53.912C319.679 51.224 318.983 49.064 317.591 47.432C316.199 45.8 314.351 44.984 312.047 44.984C309.791 44.984 307.871 45.8 306.287 47.432C304.703 49.016 303.743 51.176 303.407 53.912H319.679ZM340.606 45.704V65.432C340.606 68.312 341.974 69.752 344.71 69.752C346.294 69.752 348.19 69.296 350.398 68.384L351.19 73.208C348.838 74.312 346.366 74.864 343.774 74.864C341.182 74.864 339.022 74.096 337.294 72.56C335.566 70.976 334.702 68.576 334.702 65.36V45.704H330.166V41.168H334.702V34.688L339.166 30.584H340.606V41.168H349.894V45.704H340.606ZM370.549 40.304C373.765 40.304 377.029 41.024 380.341 42.464L378.541 46.928C376.093 45.872 373.477 45.344 370.693 45.344C367.957 45.344 365.773 46.376 364.141 48.44C362.557 50.504 361.765 53.528 361.765 57.512C361.765 61.496 362.605 64.544 364.285 66.656C365.965 68.768 368.173 69.824 370.909 69.824C373.645 69.824 376.477 69.152 379.405 67.808L380.773 72.56C377.413 74.096 374.005 74.864 370.549 74.864C366.085 74.864 362.437 73.256 359.605 70.04C356.821 66.776 355.429 62.6 355.429 57.512C355.429 52.376 356.821 48.224 359.605 45.056C362.437 41.888 366.085 40.304 370.549 40.304ZM393.164 22.304V44.552C396.764 41.72 400.628 40.304 404.756 40.304C407.972 40.304 410.516 41.12 412.388 42.752C414.308 44.336 415.268 46.424 415.268 49.016V74H409.148V49.448C409.148 48.2 408.644 47.24 407.636 46.568C406.676 45.896 405.38 45.56 403.748 45.56C400.34 45.56 396.812 46.784 393.164 49.232V74H387.044V22.304H393.164ZM428.756 73.568C428.036 74.288 427.148 74.648 426.092 74.648C425.036 74.648 424.148 74.288 423.428 73.568C422.708 72.8 422.348 71.864 422.348 70.76C422.348 69.656 422.708 68.744 423.428 68.024C424.148 67.304 425.036 66.944 426.092 66.944C427.148 66.944 428.036 67.304 428.756 68.024C429.524 68.744 429.908 69.656 429.908 70.76C429.908 71.864 429.524 72.8 428.756 73.568Z" fill="black"/>
<path d="M405 92L449 48" stroke="#FF0000" stroke-width="2"/>
<line x1="403.707" y1="48.2929" x2="447.707" y2="92.2929" stroke="#FF0000" stroke-width="2"/>
<path d="M245.5 92L288.793 48.7071" stroke="#FF0000" stroke-width="2"/>
<line x1="243.707" y1="48.2929" x2="287.707" y2="92.2929" stroke="#FF0000" stroke-width="2"/>
</svg>
